<?xml version="1.0" encoding="iso-8859-1"?>
<!-- Generator: Adobe Illustrator 19.0.0, SVG Export Plug-In . SVG Version: 6.00 Build 0)  -->
<svg version="1.1" id="Layer_1" xmlns="http://www.w3.org/2000/svg" xmlns:xlink="http://www.w3.org/1999/xlink" x="0px" y="0px"
	 viewBox="0 0 512 512" style="enable-background:new 0 0 512 512;" xml:space="preserve">
<g transform="translate(1 1)">
	<path style="fill:#FD9808;" d="M365.933,50.2h-51.2c-23.893,0-45.227,17.92-50.347,40.96c10.24,15.36,16.213,33.28,16.213,52.907
		c0,20.48-5.973,38.4-17.067,53.76v65.707c0,28.16,23.04,51.2,51.2,51.2h51.2c28.16,0,51.2-23.04,51.2-51.2V101.4
		C417.133,73.24,394.093,50.2,365.933,50.2"/>
	<g>
		<path style="fill:#FFDD09;" d="M351.427,50.2H311.32c-18.773,0-34.987,17.92-39.253,40.96c7.68,15.36,12.8,33.28,12.8,52.907
			c0,20.48-5.12,38.4-13.653,53.76v65.707c0,28.16,17.92,51.2,40.107,51.2h40.107c22.187,0,40.107-23.04,40.107-51.2V101.4
			C391.533,73.24,373.613,50.2,351.427,50.2"/>
		<path style="fill:#FFDD09;" d="M186.733,237.933c-15.36,0-29.867-3.413-42.667-10.24v87.04l17.067,17.067l-17.067,17.067
			l17.067,17.067L144.067,383l17.067,17.067l-17.067,17.067l17.067,17.067l-17.067,17.067l17.067,17.067L144.067,485.4
			l17.067,17.067h34.133V237.08C192.707,237.933,189.293,237.933,186.733,237.933"/>
	</g>
	<path style="fill:#FD9808;" d="M195.267,237.08v265.387l34.133-51.2V227.693C219.16,232.813,207.213,236.227,195.267,237.08"/>
	<path style="fill:#FFDD09;" d="M280.6,144.067c0,52.053-41.813,93.867-93.867,93.867s-93.867-41.813-93.867-93.867
		S134.68,50.2,186.733,50.2S280.6,92.013,280.6,144.067"/>
	<g>
		<path style="fill:#FD9808;" d="M212.333,109.933c0,14.507-11.093,25.6-25.6,25.6c-14.507,0-25.6-11.093-25.6-25.6
			s11.093-25.6,25.6-25.6C201.24,84.333,212.333,95.427,212.333,109.933"/>
		<path style="fill:#FD9808;" d="M365.933,109.933c0,14.507-11.093,25.6-25.6,25.6c-14.507,0-25.6-11.093-25.6-25.6
			s11.093-25.6,25.6-25.6C354.84,84.333,365.933,95.427,365.933,109.933"/>
	</g>
	<path d="M186.733,246.467c-56.32,0-102.4-46.08-102.4-102.4s46.08-102.4,102.4-102.4s102.4,46.08,102.4,102.4
		S243.053,246.467,186.733,246.467z M186.733,58.733c-46.933,0-85.333,38.4-85.333,85.333s38.4,85.333,85.333,85.333
		s85.333-38.4,85.333-85.333S233.667,58.733,186.733,58.733z"/>
	<path d="M186.733,144.067c-18.773,0-34.133-15.36-34.133-34.133S167.96,75.8,186.733,75.8s34.133,15.36,34.133,34.133
		S205.507,144.067,186.733,144.067z M186.733,92.867c-9.387,0-17.067,7.68-17.067,17.067S177.347,127,186.733,127
		c9.387,0,17.067-7.68,17.067-17.067S196.12,92.867,186.733,92.867z"/>
	<path d="M195.267,511c-0.853,0-1.707,0-2.56,0c-3.413-0.853-5.973-4.267-5.973-8.533V237.933c0-4.267,3.413-7.68,7.68-8.533
		c11.093-0.853,21.333-4.267,30.72-9.387c2.56-1.707,5.973-0.853,8.533,0c2.56,1.707,4.267,4.267,4.267,7.68v223.573
		c0,1.707-0.853,3.413-1.707,5.12l-34.133,51.2C201.24,509.293,197.827,511,195.267,511z M203.8,244.76v229.547l17.067-25.6V240.493
		C215.747,242.2,209.773,243.907,203.8,244.76z"/>
	<path d="M195.267,511h-34.133c-2.56,0-4.267-0.853-5.973-2.56l-17.067-17.067c-3.413-3.413-3.413-8.533,0-11.947l11.093-11.093
		l-11.093-11.093c-3.413-3.413-3.413-8.533,0-11.947l11.093-11.093l-11.093-11.093c-1.707-1.707-2.56-3.413-2.56-5.973
		s0.853-4.267,2.56-5.973l11.093-11.093l-11.093-11.093c-3.413-3.413-3.413-8.533,0-11.947l11.093-11.093l-11.093-11.093
		c-3.413-3.413-3.413-8.533,0-11.947l11.093-11.093l-11.093-11.093c-1.707-1.707-2.56-3.413-2.56-5.973v-87.04
		c0-2.56,1.707-5.973,4.267-7.68c2.56-1.707,5.973-1.707,8.533,0c14.507,7.68,30.72,10.24,46.933,9.387
		c2.56,0,5.12,0.853,6.827,2.56c1.707,1.707,2.56,4.267,2.56,5.973v264.533C203.8,507.587,200.387,511,195.267,511z
		 M164.547,493.933h22.187V246.467c-11.947,0-23.04-1.707-34.133-5.973v70.827l14.507,14.507c1.707,1.707,2.56,3.413,2.56,5.973
		s-0.853,4.267-2.56,5.973l-11.093,11.093l11.093,11.093c3.413,3.413,3.413,8.533,0,11.947L156.013,383l11.093,11.093
		c3.413,3.413,3.413,8.533,0,11.947l-11.093,11.093l11.093,11.093c1.707,1.707,2.56,3.413,2.56,5.973s-0.853,4.267-2.56,5.973
		l-11.093,11.093l11.093,11.093c3.413,3.413,3.413,8.533,0,11.947L156.013,485.4L164.547,493.933z"/>
	<path d="M340.333,144.067c-18.773,0-34.133-15.36-34.133-34.133S321.56,75.8,340.333,75.8s34.133,15.36,34.133,34.133
		S359.107,144.067,340.333,144.067z M340.333,92.867c-9.387,0-17.067,7.68-17.067,17.067S330.947,127,340.333,127
		c9.387,0,17.067-7.68,17.067-17.067S349.72,92.867,340.333,92.867z"/>
	<path d="M340.333,101.4c-5.12,0-8.533-3.413-8.533-8.533c0-36.693-21.333-76.8-68.267-76.8s-68.267,40.107-68.267,76.8
		c0,5.12-3.413,8.533-8.533,8.533c-5.12,0-8.533-3.413-8.533-8.533C178.2,45.933,207.213-1,263.533-1s85.333,46.933,85.333,93.867
		C348.867,97.987,345.453,101.4,340.333,101.4z"/>
	<path d="M314.733,272.067c-14.507,0-25.6-16.213-25.6-38.4s11.093-38.4,25.6-38.4c14.507,0,25.6,16.213,25.6,38.4
		S329.24,272.067,314.733,272.067z M314.733,212.333c-2.56,0-8.533,7.68-8.533,21.333c0,13.653,5.973,21.333,8.533,21.333
		c2.56,0,8.533-7.68,8.533-21.333C323.267,220.013,317.293,212.333,314.733,212.333z"/>
	<path d="M383,272.067c-5.12,0-8.533-3.413-8.533-8.533V203.8c0-5.12,3.413-8.533,8.533-8.533c5.12,0,8.533,3.413,8.533,8.533
		v59.733C391.533,268.653,388.12,272.067,383,272.067z"/>
	<path d="M365.933,229.4c-2.56,0-4.267-0.853-5.973-2.56c-3.413-3.413-3.413-8.533,0-11.947l17.067-17.067
		c3.413-3.413,8.533-3.413,11.947,0c3.413,3.413,3.413,8.533,0,11.947l-17.067,17.067C370.2,228.547,368.493,229.4,365.933,229.4z"
		/>
	<path d="M365.933,323.267h-51.2c-33.28,0-59.733-26.453-59.733-59.733v-65.707c0-1.707,0.853-3.413,1.707-5.12
		c10.24-14.507,15.36-30.72,15.36-48.64c0-17.067-5.12-34.133-15.36-48.64C255,93.72,255,91.16,255.853,88.6
		c6.827-27.307,31.573-46.933,58.88-46.933h51.2c33.28,0,59.733,26.453,59.733,59.733v162.133
		C425.667,296.813,399.213,323.267,365.933,323.267z M272.067,200.387v63.147c0,23.893,18.773,42.667,42.667,42.667h51.2
		c23.893,0,42.667-18.773,42.667-42.667V101.4c0-23.893-18.773-42.667-42.667-42.667h-51.2c-17.92,0-35.84,12.8-40.96,30.72
		c10.24,16.213,15.36,34.987,15.36,54.613C289.133,164.547,283.16,183.32,272.067,200.387z"/>
</g>
<g>
</g>
<g>
</g>
<g>
</g>
<g>
</g>
<g>
</g>
<g>
</g>
<g>
</g>
<g>
</g>
<g>
</g>
<g>
</g>
<g>
</g>
<g>
</g>
<g>
</g>
<g>
</g>
<g>
</g>
</svg>
